<svg height="496pt" viewBox="0 0 496 496" width="496pt" xmlns="http://www.w3.org/2000/svg" xmlns:xlink="http://www.w3.org/1999/xlink"><linearGradient id="a" gradientUnits="userSpaceOnUse" x1="248" x2="248" y1="0" y2="496"><stop offset=".0051" stop-color="#f5cc3a"/><stop offset=".5187" stop-color="#eb5edc"/><stop offset=".8858" stop-color="#db5ec8"/></linearGradient><path d="m368 264h16v16h-16zm128-16c0 14.183594-1.238281 28.375-3.625 42.265625 2.289062 3.847656 3.625 8.253906 3.625 12.765625 0 10.953125-7.136719 20.175781-16.96875 23.535156v137.433594h-109.222656c-37.007813 20.902344-79.046875 32-121.808594 32-136.742188 0-248-111.246094-248-248 0-82.9375 41.121094-159.742188 110.046875-205.984375l5.007813-10.015625h11.28125c37.039062-20.902344 79.039062-32 121.664062-32s84.625 11.097656 121.664062 32h11.28125l5.007813 10.015625c68.925781 46.242187 110.046875 123.046875 110.046875 205.984375zm-93.503906-172.902344 26.449218 52.902344h-36.945312v61.152344c.894531.6875 1.816406 1.34375 2.625 2.160156l83.75 83.75c1.050781-8.957031 1.625-18.015625 1.625-27.0625 0-66.734375-28.511719-129.191406-77.503906-172.902344zm-130.496094 372.902344v-121.734375c-3.550781-1.378906-6.6875-3.53125-9.238281-6.265625h-235.265625c8.246094 25.191406 20.679687 48.488281 36.503906 69.070312v-37.070312h80v96h16v-96h80v96zm-160-12.214844c5.183594 3.765625 10.503906 7.359375 16 10.695313v-14.480469h-16zm0-51.785156h16v-16h-16zm-16-16h-16v16h16zm16 32v16h16v-16zm112 0h-16v16h16zm0-32h-16v16h16zm-32 0h-16v16h16zm-16 48h16v-16h-16zm0 32h16v-16h-16zm32 0h16v-16h-16zm124.6875-232h-233.375l-78.609375 78.609375c.648437 3.160156 1.402344 6.277344 2.167969 9.390625h233.226562c-.007812-.328125-.097656-.640625-.097656-.96875 0-6.574219 2.664062-13.007812 7.3125-17.65625zm-140.6875-48h-16v32h16zm64 0h-16v32h16zm64 0h-16v32h16zm37.375 23.3125c4.714844-4.710938 10.984375-7.3125 17.65625-7.3125h.96875v-56h-256v72h40v-48h48v48h16v-48h48v48h16v-48h48v48h12.6875zm-232.429688-143.3125-32 64h310.109376l-32-64zm38.710938-16h168.6875c-26.785156-10.464844-55.398438-16-84.34375-16s-57.558594 5.535156-84.34375 16zm-147.65625 216c0 9.160156.59375 18.175781 1.632812 27.0625l75.054688-75.0625h11.3125v-72h-36.945312l26.457031-52.902344c-49 43.710938-77.511719 106.167969-77.511719 172.902344zm72.257812 168h7.742188v-16h-16v7.742188c2.679688 2.824218 5.433594 5.578124 8.257812 8.257812zm244.238282 48h-168.992188c26.199219 10.289062 54.6875 16 84.496094 16 29.039062 0 57.703125-5.535156 84.496094-16zm91.503906-96h-40v80h40zm-56 0h-40v80h40zm95.03125 80v-121.414062c-3.582031-1.21875-6.902344-3.144532-9.65625-5.898438l-.6875-.6875h-153.375l-.6875.6875c-3 3-6.664062 5.03125-10.625 6.191406v121.121094h24v-96h128v96zm-26.34375-144-60.6875-60.6875-60.6875 60.6875zm43.3125-.96875c0-2.359375-.960938-4.671875-2.625-6.34375l-94.0625-94.0625c-1.695312-1.6875-3.945312-2.625-6.34375-2.625h-1.9375c-2.398438 0-4.648438.9375-6.34375 2.625l-94.0625 94.0625c-1.664062 1.671875-2.625 3.984375-2.625 6.34375 0 4.945312 4.023438 8.96875 8.96875 8.96875 2.398438 0 4.648438-.929688 6.34375-2.625l88.6875-88.6875 88.6875 88.6875c1.695312 1.695312 3.945312 2.625 6.34375 2.625 4.945312 0 8.96875-4.023438 8.96875-8.96875zm0 0" fill="url(#a)"/></svg>