<?xml version="1.0"?>
<svg xmlns="http://www.w3.org/2000/svg" xmlns:xlink="http://www.w3.org/1999/xlink" viewBox="0 0 512 512" width="512" height="512"><defs><linearGradient id="linear-gradient" x1="108.975" y1="456.289" x2="411.019" y2="154.245" gradientUnits="userSpaceOnUse"><stop offset="0" stop-color="#41dfd0"/><stop offset="1" stop-color="#ee83ef"/></linearGradient></defs><g id="gradient"><path d="M200.419,136A24.446,24.446,0,0,0,176,160.419V176H160V160.419A40.465,40.465,0,0,1,200.419,120h7.162a40.419,40.419,0,0,1,25.25,71.98L208,211.845V232H192V208a8,8,0,0,1,3-6.247l27.833-22.267A24.418,24.418,0,0,0,207.581,136ZM208,248H192v16h16ZM19.7,353.25l56.627-36.034A176.061,176.061,0,0,1,24,192C24,94.953,102.953,16,200,16c84.179,0,154.731,59.408,171.964,138.5a176.016,176.016,0,0,1,63.7,290.719L492.3,481.25A8,8,0,0,1,488,496H312a174.141,174.141,0,0,1-109.479-38.188A177.04,177.04,0,0,1,142.636,368H24a8,8,0,0,1-4.3-14.75ZM374.956,172.861A177.177,177.177,0,0,1,376,192c0,97.047-78.953,176-176,176H159.332a161.062,161.062,0,0,0,53.149,77.291A158.3,158.3,0,0,0,312,480H460.526l-42.181-26.84a8,8,0,0,1-.975-12.768,160.03,160.03,0,0,0-42.414-267.531ZM51.473,352H200c88.224,0,160-71.776,160-160S288.224,32,200,32,40,103.776,40,192A160.08,160.08,0,0,0,94.626,312.393a8,8,0,0,1-.976,12.767ZM248,384a16,16,0,1,0,16,16A16,16,0,0,0,248,384Zm64,0a16,16,0,1,0,16,16A16,16,0,0,0,312,384Zm48,16a16,16,0,1,0,16-16A16,16,0,0,0,360,400Z" style="fill:url(#linear-gradient)"/></g></svg>
