<?xml version="1.0" encoding="utf-8"?>
<!-- Generator: Adobe Illustrator 25.0.1, SVG Export Plug-In . SVG Version: 6.00 Build 0)  -->
<svg version="1.1" xmlns="http://www.w3.org/2000/svg" xmlns:xlink="http://www.w3.org/1999/xlink" x="0px" y="0px"
	 viewBox="0 0 300 100" style="enable-background:new 0 0 300 100;" xml:space="preserve">
<style type="text/css">
	.st0{fill:#8F58A4;}
</style>
<g id="Layer_1">
</g>
<g id="Layer_1_copy_2">
	<g>
		<path class="st0" d="M17.2,23.7L17.2,23.7c-1,1.7-2.1,3.2-3.1,4.5c-1.3,1.6-2.3,2.9-3.2,3.6c-0.5,0.4-1,0.7-1.8,1
			s-1.3,0.5-1.8,0.5c-0.1,0-0.3,0-0.5-0.1s-0.4-0.2-0.5-0.3c-0.7-0.6-1.2-2.2-1.6-4.7C4.2,25.7,4,22.7,4,19.1c0-2.9,0.3-4.9,0.8-5.8
			c0.2-0.4,0.5-0.7,0.9-1c0.4-0.3,1-0.5,1.7-0.8C8,11.2,8.7,11,9.4,10.9c0.7-0.2,1.3-0.2,1.7-0.2c0.4,0,0.7,0.1,0.9,0.2
			c0.2,0.1,0.3,0.4,0.3,0.6c0,0.1,0,0.3-0.1,0.5c-0.3,1-0.5,2.5-0.8,4.3c-0.2,1.2-0.3,2.2-0.4,3c-0.1,0.8-0.1,1.8-0.2,3.2
			c0,1.3-0.1,2.7-0.1,4l0.1,0.1c0.6-0.6,1.2-1.4,1.8-2.3c0.2-0.3,0.5-0.6,0.7-0.9c0.2-0.3,0.5-0.6,0.7-1c0.6-0.9,1.1-1.8,1.6-2.7
			c0.2-0.4,0.4-0.8,0.6-1.2c1.9-3.7,3.3-5.8,4.1-6.4c0.4-0.3,1-0.5,2-0.8c1-0.3,1.8-0.4,2.6-0.4c0.5,0,0.9,0.1,1.2,0.3
			c0.3,0.2,0.5,0.5,0.5,0.8c0,0.3-0.2,0.8-0.5,1.7c-0.7,1.7-1.2,3.5-1.6,5.4s-0.6,3.7-0.6,5.3c0,3.1,0.7,4.7,2.1,4.7
			c0.4,0,0.8-0.3,1.2-0.8c0.4-0.5,0.8-1.2,1.1-2s0.6-1.8,0.8-2.9s0.3-2.2,0.3-3.4c0-0.7,0-1.5-0.1-2.4c0-0.3,0-0.5,0-0.7
			c0-1.2,0.8-2.4,2.3-3.7c0.8-0.6,1.3-0.9,1.7-0.9c0.9,0,1.3,1.4,1.3,4.3c0,2-0.3,4-0.8,5.8c-0.7,2.2-1.5,4.1-2.7,5.7
			c-0.6,0.8-1.3,1.7-2.1,2.5c-0.8,0.8-1.6,1.4-2.4,1.9c-1,0.6-2.1,0.9-3.2,0.9c-2.1,0-3.7-0.7-4.7-2.1c-1-1.4-1.5-3.6-1.5-6.5
			L17.2,23.7L17.2,23.7z"/>
		<path class="st0" d="M59.3,1.3c3.9,0,5.8,0.8,5.8,2.3c0,1.8-0.9,2.7-2.6,2.9c-2.1,0.2-4.1,1.2-5.9,3.1c-1.8,1.8-3.4,4.3-4.9,7.5
			c-1.4,3.2-2.5,6.7-3.3,10.7c-0.8,4-1.2,8.1-1.2,12.5c0,4.9,0.7,8.8,2,11.7c1.3,2.9,3,4.4,5.2,4.4c2,0,3.7-1.7,5.2-5.2
			c1.5-3.5,2.2-7.5,2.2-12.1c0-3.8-0.5-7.3-1.4-10.6c-0.9-3.3-2.3-6.1-4.1-8.4c-0.8-1-1.1-1.8-1.1-2.2c0-0.6,0.5-1.6,1.6-2.9
			c1.2-1.4,2.6-2.5,4-3.5c1.5-0.9,2.8-1.4,3.8-1.4c1.2,0,2.3,0.5,3.3,1.6s2,2.5,2.8,4.5c0.8,1.9,1.4,4.1,1.9,6.7s0.7,5.2,0.7,8
			c0,4.7-0.5,9.4-1.6,14c-1,4.6-2.4,8.3-4.1,11.2c-2.2,3.6-4.8,6.5-7.9,8.8c-3.1,2.3-6,3.4-8.8,3.4c-2.7,0-5.4-0.8-8.1-2.4
			s-4.8-3.7-6.4-6.3c-2.1-3.6-3.1-8.6-3.1-15.1c0-5.2,0.8-10.3,2.2-15.5c1.5-5.2,3.5-9.8,6-14C44.2,10.7,47,7.4,50,5
			S56.1,1.3,59.3,1.3z"/>
		<path class="st0" d="M100.8,47.5l-0.7,0.9c-0.1,0.1-1,1.3-2.6,3.4c-3.1,4.2-5.7,7.5-7.7,9.9c-2,2.4-3.7,4.2-5.1,5.3
			c-1.3,1.1-2.5,1.7-3.3,1.7c-1.4,0-2.5-1-3.4-3c-0.9-2-1.3-4.5-1.3-7.7c0-5.3,0.5-11.5,1.4-18.6s2.2-14.1,3.8-21
			c1.7-7.7,3.9-12.3,6.4-14c0.9-0.7,1.9-1,3.1-1c1.6,0,3,0.9,4,2.6c1,1.7,1.5,4,1.5,6.9c0,1.9-0.2,4-0.6,6.2c-0.4,2.2-1,4.8-1.9,7.8
			l-0.5,1.9c-2.3,8.1-3.4,13-3.4,14.8c0,1,0.2,1.5,0.6,1.5c0.4,0,0.9-0.5,1.5-1.4c0.6-0.9,1.6-2.7,2.9-5.1c0.8-1.7,2-3.8,3.4-6.3
			l1.4-2.5l1.2-2.3c2.6-4.4,4.8-7.7,6.5-9.6c1.7-2,3-3,4.2-3c2.1,0,3.1,3.1,3.1,9.3c0,1.3-0.1,3.6-0.3,6.9
			c-0.3,6.4-0.5,11.8-0.5,16.3c0,0.9,0,1.7,0.1,2.4c0,0.7,0,1.7,0,2.8c0.2,3,0.3,5.3,0.4,6.9l0.3,3.8c0,1.3-0.7,2.5-2.1,3.5
			c-1.4,1-3,1.5-4.9,1.5c-1.7,0-3.1-0.6-4.4-1.7c-1.2-1.1-2.1-2.8-2.8-5c-0.6-2.2-1-4.9-1-8.1c0-0.4,0-1.1,0.1-2.1
			C100.7,50.4,100.7,49.1,100.8,47.5z"/>
		<path class="st0" d="M134.2,21.6c0.5-1.2,1-2.5,1.3-3.9c0.3-1.4,0.5-2.4,0.5-3.1c0-0.2-0.1-0.3-0.2-0.3c-0.2,0-0.6,0.4-1.1,1.2
			c-0.5,0.8-1,1.6-1.3,2.4c-0.8,1.8-1.3,3.3-1.7,4.5s-0.7,2.2-0.8,3c-0.1,0.8-0.2,1.6-0.2,2.5c0,0.7,0.1,1.2,0.3,1.6
			c0.2,0.3,0.5,0.5,0.9,0.5c0.7,0,1.5-0.3,2.4-0.8c0.9-0.5,1.7-1.2,2.4-2.1c0.6-0.6,1-1,1.3-1c0.4,0,0.6,0.3,0.6,0.8
			c0,1.2-0.4,2.3-1.3,3.4c-0.9,1.1-2,2-3.3,2.7s-2.7,1-4.1,1c-1.7,0-3.1-0.5-4.2-1.4c-1.1-0.9-1.6-2.2-1.6-3.7
			c0-1.2,0.3-2.7,0.9-4.3c0.6-1.7,1.4-3.3,2.5-5s2.2-3.2,3.4-4.6c1.2-1.4,2.5-2.4,3.6-3.1c0.8-0.5,1.6-0.7,2.5-0.7
			c0.7,0,1.3,0.2,1.9,0.6c0.6,0.4,1,0.9,1.3,1.6c0.3,0.7,0.5,1.4,0.5,2.2c0,1.7-0.4,3.4-1.2,5.1c-0.8,1.7-1.9,3.1-3.3,4.3
			c-0.7,0.6-1.3,1-1.9,1.4c-0.6,0.3-1.1,0.5-1.6,0.5s-0.7-0.1-0.7-0.5c0-0.2,0.2-0.5,0.5-0.9c0.5-0.6,1-1.5,1.6-2.7
			c0.1-0.1,0.1-0.3,0.2-0.4S134.1,21.8,134.2,21.6z"/>
		<path class="st0" d="M154.7,18.8l0.2-0.7c0.4-1.5,0.8-2.7,1.1-3.7c0.3-0.9,0.7-1.7,1-2.4s0.7-1.1,1-1.4c0.5-0.5,1.5-0.7,2.9-0.7
			c0.6,0,1.1,0,1.4,0.1c0.3,0.1,0.6,0.1,0.7,0.3c-0.6,1.6-1,2.9-1.3,3.7s-0.5,1.9-0.8,3.4c-0.4,2.3-0.7,4.5-0.7,6.3
			c0,1.2,0.1,2.5,0.4,3.9c0.2,1.3,0.6,2.8,1.1,4.5c-0.7,0.4-1.3,0.8-1.9,1c-0.6,0.3-1.2,0.5-1.8,0.7s-1,0.3-1.5,0.3
			c-0.8,0-1.3-0.3-1.6-0.9c-0.3-0.5-0.4-0.9-0.5-1.2s-0.2-1.2-0.4-2.6c-1.7,1.6-3.3,2.8-4.9,3.6c-1.6,0.9-2.8,1.3-3.8,1.3
			c-1.1,0-2-0.4-2.7-1.1s-1-1.7-1-2.9c0-1.1,0.3-2.3,0.8-3.6c0.5-1.3,1.3-2.6,2.2-3.8c0.6-0.8,1.2-1.5,1.9-2
			c0.7-0.5,1.4-1.1,2.2-1.6c1.5-0.8,2.7-1.3,3.7-1.3C153,18,153.7,18.2,154.7,18.8z M154.1,26.6v-1c-0.7,0.5-1.1,0.7-1.5,0.7
			c-0.2,0-0.3-0.1-0.3-0.2c0-0.1,0-0.2,0.1-0.4c0.3-0.6,0.4-1.3,0.4-1.9c0-0.9-0.2-1.8-0.7-2.8c-0.2-0.5-0.4-0.7-0.7-0.7
			c-0.1,0-0.3,0.1-0.4,0.2c-0.4,0.4-0.8,1-1.2,1.8s-0.7,1.6-1,2.5c-0.3,0.9-0.4,1.7-0.4,2.4c0,1.3,0.5,2,1.4,2
			c0.5,0,1.1-0.2,1.9-0.7S153.4,27.4,154.1,26.6z"/>
		<path class="st0" d="M13.1,43.9l0.2,1.2c0.1,0.2,0.1,0.5,0.1,1c0.3,3,0.8,5.7,1.4,8.1c0.3,1,0.6,1.9,1,2.9c0.5-0.9,1.1-1.9,1.6-3
			c0.2-0.4,0.4-0.8,0.6-1.1c0.2-0.4,0.3-0.6,0.4-0.7c0.1-0.1,0.2-0.4,0.4-0.7c0.3-0.6,0.7-1.5,1.3-2.9c0.4-0.9,0.7-1.5,0.8-1.8
			c0.1-0.3,0.4-0.8,0.8-1.5c0.5-0.9,1.1-1.7,1.9-2.4c0.5-0.4,1-0.8,1.6-1.2c0.6-0.4,1.1-0.7,1.7-0.9c0.5-0.2,1-0.3,1.3-0.3
			c0.5,0,0.8,0.2,0.8,0.5c0,0.3-0.1,0.7-0.4,1.2c-0.7,1.5-1.7,3.4-2.9,5.6c-1.2,2.2-2.5,4.3-3.7,6.4c-1.3,2.1-2.4,3.7-3.2,4.9
			c-0.7,1-1.4,1.9-2.2,2.8c-1.3,1.6-2.6,2.9-3.7,3.7c-1.1,0.8-2.3,1.5-3.7,2c-0.7,0.3-1.5,0.5-2.4,0.6c-0.7,0.1-1.1,0.1-1.5,0.1
			c-0.7,0-1.2-0.1-1.6-0.3C3.2,67.9,3,67.7,3,67.3c0-0.4,0.2-1,0.7-1.8c0.5-0.8,0.9-1.4,1.4-1.9c0.3-0.3,0.9-0.4,1.7-0.4
			c0.9,0,1.7-0.1,2.3-0.3c0.4-0.1,0.9-0.3,1.3-0.4c0.5-0.2,1-0.5,1.6-0.8c-1-1.4-1.8-2.8-2.6-4.1s-1.3-2.5-1.8-3.7
			c-0.7-1.6-1.2-3.3-1.6-5.1c-0.4-1.8-0.6-3.4-0.6-4.7c0-0.8,0.1-1.4,0.3-1.8s0.6-0.7,1.1-1c0.8-0.4,1.6-0.8,2.5-1
			c0.9-0.3,1.7-0.5,2.3-0.5c0.5,0,0.8,0.1,1,0.5c0.2,0.3,0.3,1,0.3,1.9C13,42.9,13,43.5,13.1,43.9z"/>
		<path class="st0" d="M178.2,13.5c-0.6,0.5-1,1-1.2,1.6c-0.7,1.3-1,2.6-1,3.9c0,0.5,0.1,1,0.3,1.5c0.1,0.1,0.1,0.2,0.1,0.3
			c0,0.2-0.2,0.3-0.5,0.3c-0.6,0-1.1-0.2-1.6-0.7s-1-1.1-1.3-1.8c-0.4-0.7-0.5-1.4-0.5-2.2c0-1.6,0.6-2.9,1.9-3.9s2.9-1.5,4.8-1.5
			c1.4,0,2.7,0.2,3.8,0.7c1.2,0.5,2.2,1.1,2.9,1.8c0.7,0.7,1,1.6,1,2.5c0,1.4-0.6,2.8-1.8,4.3c-0.5,0.6-1,1.1-1.5,1.5
			s-1.2,0.9-2.1,1.6v0.1c0.5,0,1,0,1.4,0s0.9,0,1.3,0s0.8,0,1,0c0.1,0,0.2,0,0.2,0s0.1,0,0.2,0c0.5,0,0.7,0.1,0.7,0.5
			c0,0.2-0.2,0.5-0.5,1c-0.3,0.5-0.7,0.8-1.1,1.2c-1.4,1.2-3.8,1.8-7.1,1.8c-2.5,0-3.7-0.4-3.7-1.2c0-0.1,0.1-0.3,0.2-0.5
			c0.1-0.2,0.5-0.6,0.9-1.1c0.8-0.8,1.5-1.6,2.3-2.6c1.9-2.4,2.8-4.5,2.8-6.4c0-0.7-0.1-1.3-0.4-1.7
			C179.4,13.9,178.9,13.6,178.2,13.5z M175.1,34c-0.5,0-0.9-0.1-1.2-0.5s-0.5-0.6-0.5-1c0-0.4,0.2-1,0.5-1.6
			c0.3-0.6,0.6-1.1,0.9-1.4c0.5-0.4,1-0.7,1.8-0.9s1.5-0.3,2.3-0.3c1.2,0,1.8,0.3,1.8,1.1c0,0.3-0.1,0.6-0.2,0.9
			c-0.3,1.2-0.7,2-1,2.3c-0.5,0.4-1.4,0.8-3,1.2C175.9,34,175.4,34,175.1,34z"/>
		<path class="st0" d="M194.2,13.5c-0.6,0.5-1,1-1.2,1.6c-0.7,1.3-1,2.6-1,3.9c0,0.5,0.1,1,0.3,1.5c0.1,0.1,0.1,0.2,0.1,0.3
			c0,0.2-0.2,0.3-0.5,0.3c-0.6,0-1.1-0.2-1.6-0.7s-1-1.1-1.3-1.8c-0.4-0.7-0.5-1.4-0.5-2.2c0-1.6,0.6-2.9,1.9-3.9s2.9-1.5,4.8-1.5
			c1.4,0,2.7,0.2,3.8,0.7c1.2,0.5,2.2,1.1,2.9,1.8c0.7,0.7,1,1.6,1,2.5c0,1.4-0.6,2.8-1.8,4.3c-0.5,0.6-1,1.1-1.5,1.5
			s-1.2,0.9-2.1,1.6v0.1c0.5,0,1,0,1.4,0s0.9,0,1.3,0s0.8,0,1,0c0.1,0,0.2,0,0.2,0s0.1,0,0.2,0c0.5,0,0.7,0.1,0.7,0.5
			c0,0.2-0.2,0.5-0.5,1c-0.3,0.5-0.7,0.8-1.1,1.2c-1.4,1.2-3.8,1.8-7.1,1.8c-2.5,0-3.7-0.4-3.7-1.2c0-0.1,0.1-0.3,0.2-0.5
			c0.1-0.2,0.5-0.6,0.9-1.1c0.8-0.8,1.5-1.6,2.3-2.6c1.9-2.4,2.8-4.5,2.8-6.4c0-0.7-0.1-1.3-0.4-1.7
			C195.4,13.9,194.9,13.6,194.2,13.5z M191,34c-0.5,0-0.9-0.1-1.2-0.5s-0.5-0.6-0.5-1c0-0.4,0.2-1,0.5-1.6c0.3-0.6,0.6-1.1,0.9-1.4
			c0.5-0.4,1-0.7,1.8-0.9c0.7-0.2,1.5-0.3,2.3-0.3c1.2,0,1.8,0.3,1.8,1.1c0,0.3-0.1,0.6-0.2,0.9c-0.3,1.2-0.7,2-1,2.3
			c-0.5,0.4-1.4,0.8-3,1.2C191.8,34,191.4,34,191,34z"/>
		<path class="st0" d="M129.5,50.7l0.5-1.1c-0.4,0-0.7,0.1-1.1,0.1c-0.2,0.1-0.6,0.1-1,0.1c-0.6,0-0.9-0.3-0.9-0.8
			c0-0.2,0.1-0.5,0.2-0.8c0.2-0.3,0.3-0.6,0.5-0.7c0.4-0.4,1.2-0.6,2.6-0.9c1.3-0.3,2.8-0.3,4.6-0.3c1.3,0,2.6,0.2,3.8,0.5
			c1.2,0.3,2.3,0.8,3.1,1.4s1.6,1.3,2.1,2.1c0.5,0.8,0.8,1.6,0.8,2.5c0,1-0.2,1.9-0.7,2.7c-0.4,0.8-1,1.6-1.8,2.2
			c-0.5,0.4-1,0.7-1.5,1s-1.1,0.5-1.9,0.7c0.2,0.4,0.4,0.7,0.6,0.9s0.5,0.5,0.9,0.9c1,0.9,2.5,1.7,4.5,2.4c0.1,0.1,0.2,0.1,0.4,0.1
			c-0.2,0.9-0.4,1.6-0.6,2.1c-0.2,0.4-0.5,0.9-0.9,1.4c-0.7,0.9-1.6,1.4-2.6,1.4c-0.6,0-1.2-0.2-2.1-0.6c-0.8-0.4-1.5-0.8-2-1.4
			c-0.4-0.5-0.8-0.9-1.1-1.4s-0.7-1.1-1-1.7c-0.4-0.6-0.7-1.3-0.9-1.9c-0.2-0.6-0.4-1.2-0.6-1.6c0-0.1,0-0.2,0-0.4
			c0-0.2,0.1-0.4,0.2-0.5c0.1-0.1,0.4-0.3,0.8-0.4c0.5-0.2,1-0.4,1.3-0.6s0.8-0.5,1.3-1c0.6-0.6,1-1.3,1.4-2.1
			c0.3-0.8,0.5-1.6,0.5-2.5c0-1-0.2-1.8-0.7-2.3c-0.5-0.5-1.2-0.9-2.3-1.2c-1,3.4-2,6.7-3,9.7l-0.4,1.3c-0.6,2-1.1,3.4-1.5,4.4
			c-0.4,1-0.8,1.6-1.2,2c-0.4,0.4-1,0.8-1.9,1.1c-0.9,0.4-1.5,0.6-2,0.6c-1,0-1.4-0.5-1.4-1.5c0-0.4,0.1-1.1,0.4-2.1
			c0.3-1,0.7-2.3,1.2-4c0.6-1.7,1.1-3.3,1.7-4.8C128.2,54,128.9,52.4,129.5,50.7z"/>
		<path class="st0" d="M158.5,63.5L158.5,63.5L158.5,63.5c-1.1,1.2-2.1,2.2-3,3s-1.7,1.4-2.5,1.7c-0.8,0.4-1.4,0.6-2.1,0.6
			c-1.3,0-2.4-0.4-3.2-1.2c-0.9-0.8-1.3-1.9-1.3-3.1c0-0.8,0.2-1.7,0.6-2.8c0.4-1.1,1-2.1,1.7-3.1c1.2-1.7,2.8-3.1,4.6-4.3
			c1.9-1.2,3.7-1.8,5.5-1.8c1.5,0,2.7,0.3,3.7,0.9c1,0.6,1.4,1.3,1.4,2.2c0,0.6-0.2,1.3-0.7,2.1c0.6,0,1,0.1,1.2,0.2
			c0.2,0.1,0.2,0.4,0.2,0.9c0-0.1,0,0.2-0.1,0.7c-0.1,1.1-0.1,2.1-0.1,3c0,0.5,0,0.9,0,1.1c0,0.3,0,0.5,0.1,0.9
			c0,0.3,0.1,0.6,0.1,0.8c0.1,0.5,0.2,1,0.5,1.5c-0.7,0.6-1.4,1.1-2,1.4c-0.6,0.3-1.3,0.5-1.9,0.5c-1.8,0-2.7-1.4-2.7-4.3
			C158.5,63.9,158.5,63.7,158.5,63.5z M159.5,59.7l-0.3,0.1c-0.8,0.2-1.4,0.3-1.8,0.3c-0.5,0-0.7-0.1-0.7-0.3c0-0.1,0.1-0.3,0.3-0.6
			c0.7-0.9,1-1.8,1-2.7c0-0.5-0.1-0.9-0.3-1.3c-0.2-0.4-0.4-0.6-0.6-0.6c-0.2,0-0.5,0.2-0.9,0.6c-1.1,1.1-1.9,2.3-2.6,3.4
			c-0.6,1.2-1,2.2-1,3.1c0,0.6,0.1,1.1,0.4,1.5c0.3,0.4,0.6,0.6,1,0.6c0.3,0,1-0.3,1.9-1s2-1.6,3.1-2.7L159.5,59.7L159.5,59.7z"/>
		<path class="st0" d="M169.5,52.3l0.1-0.2c0.8-2.1,1.4-3.5,2-4.3c0.3-0.4,0.6-0.8,1.1-1.1c0.9-0.5,1.7-0.8,2.5-0.8
			c0.5,0,0.8,0.1,1,0.3c0.2,0.2,0.4,0.5,0.4,0.9c0,0.3-0.2,0.8-0.5,1.6c-0.6,1.3-1,2.5-1.3,3.6c0.2,0,0.4,0.1,0.6,0.1
			c0.7,0.1,1.1,0.2,1.4,0.3c0.2,0.1,0.3,0.4,0.3,0.7c0,0.6-0.2,1.1-0.5,1.6c-0.3,0.5-0.7,0.8-1.2,1.1c-0.4,0.2-1,0.3-1.9,0.3
			c-0.2,0.4-0.3,1-0.5,1.8c-0.1,0.6-0.2,1.6-0.4,2.7c-0.1,0.4-0.1,0.8-0.1,1.2c0,1.8,0.9,2.6,2.7,2.6h0.1h0.1c0.2,0,0.3,0,0.3,0.1
			c0,0.2-0.2,0.5-0.6,0.9c-0.4,0.4-0.8,0.8-1.3,1.1c-0.5,0.3-1.1,0.6-1.7,0.8S171,68,170.5,68c-1.2,0-2.2-0.4-3-1.2
			c-0.8-0.8-1.1-1.8-1.1-3.1c0-0.6,0.1-1.3,0.3-2.2c0.2-0.9,0.5-2.1,1-3.6c0.1-0.3,0.1-0.5,0.2-0.8c0.1-0.3,0.1-0.5,0.1-0.5
			c-0.5,0-0.8-0.1-1-0.3c-0.2-0.2-0.3-0.5-0.3-0.8c0-0.7,0.3-1.4,0.9-2C168.1,52.9,168.8,52.5,169.5,52.3z"/>
		<path class="st0" d="M190.2,48.2v-0.3c0-0.4-0.1-0.6-0.2-0.6c-0.2,0-0.4,0.2-0.7,0.6s-0.6,0.9-0.9,1.5c-0.6,1.4-1.2,2.8-1.7,4.4
			c-0.5,1.6-0.9,3.1-1.1,4.6c-0.1,0.6-0.2,1.2-0.3,1.9l0.1,0.1c1.1-1.1,2-1.9,2.6-2.4c0.6-0.5,1.3-1,2.2-1.6
			c1.1-0.8,2.1-1.1,2.8-1.1c0.5,0,0.9,0.2,1.1,0.5c0.3,0.3,0.4,0.8,0.4,1.4c0,0.3-0.1,0.8-0.2,1.4c-0.2,1.3-0.4,2.4-0.4,3.3
			c0,0.4,0,0.8,0.1,1.3c0.1,0.3,0.3,1.1,0.6,2.1c0.3,0.8,0.4,1.3,0.4,1.4c0,0.1-0.2,0.3-0.6,0.6c-1.2,0.8-2.4,1.2-3.4,1.2
			c-0.9,0-1.5-0.4-2.1-1.2c-0.5-0.8-0.8-1.8-0.8-3.1c0-0.5,0.1-1.1,0.2-1.8l-0.1-0.1c-1.6,1.6-2.8,2.7-3.3,3.3
			c-2.1,1.9-3.6,2.9-4.8,2.9c-0.5,0-0.9-0.3-1.2-1s-0.5-1.5-0.5-2.5c0-2.2,0.7-5.1,2.2-8.5c0.6-1.4,1.2-2.6,1.8-3.9
			c0.7-1.2,1.3-2.3,1.9-3.2c0.4-0.6,0.9-1.2,1.3-1.6c0.5-0.5,1-0.8,1.4-1.2c0.5-0.3,1-0.5,1.5-0.7c0.5-0.2,1-0.2,1.5-0.2
			c1.2,0,2.3,0.4,3,1.1c0.8,0.7,1.2,1.7,1.2,2.8c0,0.8-0.2,1.6-0.7,2.5c-0.5,0.9-1.1,1.8-2,2.5c-0.6,0.5-1.1,1-1.8,1.4
			c-0.7,0.4-1.2,0.6-1.6,0.6c-0.1,0-0.2,0-0.3-0.1s-0.1-0.2-0.1-0.3c0-0.2,0.2-0.5,0.5-1.1c0.4-0.6,0.7-1.4,1-2.2
			c0.3-0.9,0.6-1.7,0.8-2.5C190.2,49.4,190.2,48.7,190.2,48.2z"/>
		<path class="st0" d="M202.3,63.7c0.1,0.6,0.6,1,1.3,1c0.9,0,2-0.5,3.4-1.5c0.8-0.6,1.3-0.8,1.6-0.8c0.4,0,0.7,0.1,1,0.3
			c0.3,0.2,0.5,0.4,0.5,0.5c0,0.2-0.2,0.5-0.5,0.8c-0.6,0.6-1.3,1.2-2.1,1.7c-0.8,0.6-1.6,1-2.3,1.4c-0.8,0.4-1.5,0.6-2.2,0.9
			c-0.8,0.2-1.4,0.3-2,0.3c-1.4,0-2.6-0.4-3.5-1.2s-1.3-1.8-1.3-3.2c0-1,0.2-2.1,0.7-3.4s1.1-2.5,1.8-3.6c0.9-1.3,2-2.4,3.4-3.2
			c1.6-1,3.2-1.6,4.7-1.6c1.1,0,1.9,0.3,2.6,1c0.6,0.6,0.9,1.6,0.9,2.7c0,0.9-0.3,1.8-0.8,2.8c-0.5,1-1.2,1.9-2.2,2.8
			c-0.8,0.8-1.6,1.3-2.3,1.8c-0.8,0.4-1.4,0.6-2,0.6C202.8,63.9,202.6,63.8,202.3,63.7z M202.3,63.2c0.5-0.3,1-0.7,1.2-1
			c0.6-0.7,1.1-1.5,1.4-2.5c0.3-0.6,0.5-1.3,0.6-2c0.2-0.7,0.2-1.4,0.2-2.1c0-0.6-0.1-0.9-0.4-0.9c-0.4,0-1,0.8-1.7,2.3
			c-0.5,0.9-0.8,1.9-1.1,2.8c-0.3,0.9-0.4,1.7-0.4,2.4C202.1,62.4,202.2,62.8,202.3,63.2z"/>
		<path class="st0" d="M217.4,63.3l-0.1,0.3c0,0.2,0,0.5-0.1,0.8c0,0.5-0.1,1-0.2,1.3c-0.1,0.3-0.2,0.6-0.4,0.8
			c-0.2,0.2-0.4,0.5-0.7,0.7c-0.9,0.7-1.7,1.1-2.6,1.1c-0.7,0-1.2-0.3-1.5-0.7s-0.5-1.3-0.5-2.3c0-0.8,0.1-1.9,0.3-3.2
			c0.2-1.3,0.5-2.4,0.8-3.4l0.1-0.4c0-0.1,0-0.2,0.1-0.4c0.4-1.5,0.8-2.6,1.2-3.3c0.4-0.7,0.8-1.3,1.3-1.8c0.5-0.3,1-0.5,1.5-0.5
			c0.8,0,1.3,0.5,1.5,1.4c0.2-0.1,0.3-0.3,0.5-0.5c0.3-0.4,0.6-0.6,0.8-0.8c0.2-0.1,0.4-0.2,0.7-0.2c1,0,1.5,0.9,1.5,2.8
			c0,1-0.1,2-0.4,3c-0.2,1-0.5,1.8-0.9,2.3c-0.4,0.6-0.7,0.9-1,0.9c-0.4,0-0.6-0.7-0.6-2.1c0-0.7,0-1.3-0.1-1.7
			c-0.1-0.4-0.2-0.7-0.4-1c-0.4,0.6-0.6,2-0.7,4.2C217.5,62.1,217.4,63,217.4,63.3z"/>
	</g>
</g>
</svg>
